<?xml version="1.0" encoding="utf-8"?>
<!-- Generator: Adobe Illustrator 24.3.0, SVG Export Plug-In . SVG Version: 6.00 Build 0)  -->
<svg version="1.1" id="Layer_1" xmlns="http://www.w3.org/2000/svg" xmlns:xlink="http://www.w3.org/1999/xlink" x="0px" y="0px"
	 viewBox="0 0 800 800" style="enable-background:new 0 0 800 800;" xml:space="preserve">
<style type="text/css">
	.st0{fill:#FFFFFF;stroke:#000000;stroke-miterlimit:10;}
	.st1{fill:#D9E6FF;}
	.st2{fill:#4C7DE6;}
	.st3{fill:#2463EB;}
	.st4{fill:#3BA7FF;}
	.st5{font-family:'Recursive-Medium';}
	.st6{font-size:93.5437px;}
	.st7{font-size:27.578px;}
</style>
<rect class="st0" width="800" height="800"/>
<g>
	<g id="SVGRepo_bgCarrier">
	</g>
	<g id="SVGRepo_tracerCarrier">
	</g>
	<circle class="st1" cx="403.5" cy="403.8" r="375.8"/>
	<g>
		<path class="st2" d="M670,59.5H137c-40.2,0-72.7,32.5-72.7,72.7v339.2c0,40.2,32.5,72.7,72.7,72.7h533c40.2,0,72.7-32.5,72.7-72.7
			V132.2C742.7,92,710.2,59.5,670,59.5z M638.7,318.9c-4.5,4.5-10.7,7.1-17.1,7.1h-72.7c-6.4,0-12.6-2.6-17.1-7.1
			s-7.1-10.7-7.1-17.1s2.6-12.6,7.1-17.1s10.7-7.1,17.1-7.1h72.7c6.4,0,12.6,2.6,17.1,7.1s7.1,10.7,7.1,17.1
			S643.2,314.4,638.7,318.9z"/>
		<path class="st3" d="M403.5,59.5v484.6H137c-19.3,0-37.7-7.7-51.4-21.3c-13.6-13.6-21.3-32.1-21.3-51.4V132.2
			c0-19.3,7.7-37.7,21.3-51.4c13.7-13.6,32.1-21.3,51.4-21.3h121.1v339.2c0,6.4,2.6,12.6,7.1,17.1s10.7,7.1,17.1,7.1
			s12.6-2.6,17.1-7.1s7.1-10.7,7.1-17.1V59.5H403.5z"/>
		<path class="st1" d="M306.6,58.5v339.2c0,6.4-2.6,12.6-7.1,17.1s-10.7,7.1-17.1,7.1s-12.6-2.6-17.1-7.1s-7.1-10.7-7.1-17.1V58.5
			H306.6z"/>
		<path class="st1" d="M621.6,229.1H500.4c-6.4,0-12.6-2.6-17.1-7.1s-7.1-10.7-7.1-17.1c0-6.4,2.6-12.6,7.1-17.1s10.7-7.1,17.1-7.1
			h121.1c6.4,0,12.6,2.6,17.1,7.1s7.1,10.7,7.1,17.1c0,6.4-2.6,12.6-7.1,17.1C634.2,226.6,628,229.1,621.6,229.1z"/>
		<path class="st1" d="M645.8,301.8c0,6.4-2.6,12.6-7.1,17.1S628,326,621.6,326h-72.7c-6.4,0-12.6-2.6-17.1-7.1s-7.1-10.7-7.1-17.1
			s2.6-12.6,7.1-17.1s10.7-7.1,17.1-7.1h72.7c6.4,0,12.6,2.6,17.1,7.1C643.2,289.2,645.8,295.4,645.8,301.8z"/>
		<path class="st1" d="M621.6,423H500.4c-6.4,0-12.6-2.6-17.1-7.1s-7.1-10.7-7.1-17.1s2.6-12.6,7.1-17.1s10.7-7.1,17.1-7.1h121.1
			c6.4,0,12.6,2.6,17.1,7.1s7.1,10.7,7.1,17.1s-2.6,12.6-7.1,17.1C634.2,420.4,628,423,621.6,423z"/>
	</g>
	<text transform="matrix(1 0 0 1 271.1372 636.3672)" class="st4 st5 st6">Libris</text>
	<text transform="matrix(1 0 0 1 249.0659 689.6787)" class="st4 st5 st7">Track, Discover, Share</text>
	<text transform="matrix(1 0 0 1 264.2339 722.7715)" class="st4 st5 st7">Your Favorite Books</text>
</g>
</svg>
